# xmcd
#
# Track frame offsets:
#	177
#	10467
#	23007
#	32146
#	44801
#	58172
#	71593
#	85443
#	98485
#	112084
#	125617
#	138138
#	147203
#	155890
#	169231
#	181786
#	195398
#	205067
#	218238
#	229926
#	235375
#	248612
#	260869
#	274202
#	287517
#	300016
#	313454
#
# Disc length: 4372 seconds
#
# Revision: 0
# Processed by: cddbd v1.5.2PL0 Copyright (c) Steve Scherf et al.
# Submitted via: audiograbber 1.83.01
#
DISCID=9311121b
DTITLE=Mary Higgins Clark - Mit Deinem letzten Atemzug
DYEAR=1900
DGENRE=
TTITLE0=201
TTITLE1=202
TTITLE2=203
TTITLE3=204
TTITLE4=205
TTITLE5=206
TTITLE6=207
TTITLE7=208
TTITLE8=209
TTITLE9=210
TTITLE10=211
TTITLE11=212
TTITLE12=213
TTITLE13=214
TTITLE14=215
TTITLE15=216
TTITLE16=217
TTITLE17=218
TTITLE18=219
TTITLE19=220
TTITLE20=221
TTITLE21=222
TTITLE22=223
TTITLE23=224
TTITLE24=225
TTITLE25=226
TTITLE26=227
EXTD=
EXTT0=
EXTT1=
EXTT2=
EXTT3=
EXTT4=
EXTT5=
EXTT6=
EXTT7=
EXTT8=
EXTT9=
EXTT10=
EXTT11=
EXTT12=
EXTT13=
EXTT14=
EXTT15=
EXTT16=
EXTT17=
EXTT18=
EXTT19=
EXTT20=
EXTT21=
EXTT22=
EXTT23=
EXTT24=
EXTT25=
EXTT26=
PLAYORDER=
